
<svg class="svg" height="512" viewBox="0 0 24 24" width="512" xmlns="http://www.w3.org/2000/svg">
  <g>
    <path d="m6.35367 15.6464c-.19526-.1952-.51184-.1952-.7071 0-.19527.1953-.19527.5119 0 .7071l2 2c.19526.1953.51184.1953.7071 0 .19527-.1952.19527-.5118 0-.7071z"/>
    <path clip-rule="evenodd" d="m18.8537 1.14645c-.1953-.195266-.5119-.195266-.7071 0-.1953.19526-.1953.51184 0 .7071l.6465.64657-.7929.7929-.6465-.64657c-.1953-.19527-.5119-.19527-.7071 0-.1953.19526-.1953.51184 0 .7071l.6465.64657-7.50751 7.50758c-2.31101-1.1728-5.20753-.7932-7.13951 1.1387-2.404407 2.4045-2.404407 6.3028 0 8.7072 2.4044 2.4044 6.3027 2.4044 8.70712 0 1.9317-1.9318 2.3115-4.8277 1.1393-7.1386l7.5075-7.50756.6461.64605c.1952.19527.5118.19527.7071 0 .1952-.19526.1952-.51184 0-.7071l-.6461-.64605.7933-.79323.6464.64644c.1953.19527.5119.19527.7071 0 .1953-.19526.1953-.51184 0-.7071l-.6464-.64645.1464-.14644c.7476-.74755.7476-1.95957 0-2.70711-.7475-.74755-1.9595-.74755-2.7071 0l-.1466.14657zm.7998 4.49271c.0032-.00315.0065-.00625.0099-.00929l1.4834-1.48342.0009-.00093.4991-.49907c.357-.35702.357-.93587 0-1.2929-.357-.35702-.9359-.35702-1.2929 0l-9.6944 9.69445c.2422.1794.4742.3789.6937.5985.2198.2197.4195.452.5991.6945l7.6773-7.6773c.0053-.00587.0108-.01164.0165-.01731.0024-.00244.0049-.00485.0074-.00723zm-9.0074 7.71444c-2.0139-2.0139-5.27904-2.0139-7.29292 0-1.51907 1.519-1.8923 3.75-1.1197 5.619l1.54126-1.5413c.09377-.0938.22095-.1464.35355-.1464.13261 0 .25979.0526.35356.1464l2 2c.18928.1893.19591.4941.01504.6914l-1.49623 1.6324c1.87427.7872 4.11918.4176 5.64544-1.1086 2.0139-2.0139 2.0139-5.2791 0-7.2929zm-7.80873 6.4293 1.29092-1.2909 1.30796 1.3079-1.23473 1.3471z" fill-rule="evenodd"/>
  </g>
</svg>